Spencer Tracy plays an American priest tending to the natives of a South Sea island. A plane carrying three convicts -- Harry (Frank Sinatra), Marcel Gregoire Aslan and Charlie Bernie Hamilton) -- lands on the island; Father Doonan (Tracy) manages to enlist their (reluctant) aid in working at a children's hospital. When the island falls victim to a series of earthquakes, Father Doonan and the convicts work together to evacuate the hospital staff and the children. Harry, the least cooperative of the prisoners, becomes a hero during a volcanic eruption by going back to rescue the priest, who with convict Charlie has been holding a bridge in order to allow the others to escape. Father Doonan and the two convicts are killed, but all the children are rescued. Blighted by bad special effects and ponderous direction, Devil at Four O'Clock is less interesting than the behind-the-scenes rumors concerning the friction between Spencer Tracy and Frank Sinatra. 


 
http://www.imdb.com/title/tt0054805/



Subtitles:


 
http://www.opensubtitles.org/en/search/imdbid-54805/sublanguageid-all



Director:
Mervyn LeRoy




        Spencer Tracy	 ... 	Father Matthew Doonan

	Frank Sinatra	... 	Harry
	Kerwin Mathews	... 	Father Joseph Perreau
	Jean-Pierre Aumont... 	Jacques (as Jean Pierre Aumont)
	Grégoire Aslan	... 	Marcel (as Gregoire Aslan)



 Video #2
      ID : 2
      Format : VC-1
      Format profile : MP@ML
      Codec ID : WMV3
      Codec ID/Info : Windows Media Video 9
      Codec ID/Hint : WMV3
      Duration : 2h 1mn
      Bit rate mode : Variable
      Bit rate : 1 000 Kbps
      Width : 640 pixels
      Height : 480 pixels
      Display aspect ratio : 4/3
      Frame rate : 29.970 fps
      Resolution : 24 bits
      Scan type : Progressive
      Bits/(Pixel*Frame) : 0.109
      Stream size : 872 MiB (83%)
   Audio #1
      ID : 1
      Format : WMA2
      Format profile : L
      Codec ID : 161
      Codec ID/Info : Windows Media Audio 2
      Description of the codec : Windows Media Audio 9.2 - 192 kbps, 44 kHz, stereo 2-pass VBR
      Duration : 2h 1mn
      Bit rate mode : Variable
      Bit rate : 192 Kbps
      Channel(s) : 2 channels
      Sampling rate : 44.1 KHz
      Resolution : 16 bits
      Stream size : 167 MiB (16%)



     Please seed at least as much as you D/L.
     =======================================
     Thanks 

     John